<svg id="SvgjsSvg1157" xmlns="http://www.w3.org/2000/svg" version="1.1" xmlns:xlink="http://www.w3.org/1999/xlink" xmlns:svgjs="http://svgjs.com/svgjs" width="21" height="21" viewBox="0 0 21 21"><title>Page 1</title><desc>Created with Avocode.</desc><defs id="SvgjsDefs1158"></defs><path id="SvgjsPath1159" d="M823.33 5734.3C824.19 5734.3 824.9000000000001 5733.59 824.9000000000001 5732.7300000000005C824.9000000000001 5731.860000000001 824.19 5731.150000000001 823.33 5731.150000000001C822.44 5731.150000000001 821.75 5731.860000000001 821.75 5732.7300000000005C821.75 5733.59 822.44 5734.3 823.33 5734.3ZM816.59 5744.08C819.49 5744.08 821.84 5741.72 821.84 5738.83C821.84 5735.93 819.49 5733.58 816.59 5733.58C813.69 5733.58 811.34 5735.93 811.34 5738.83C811.34 5741.72 813.69 5744.08 816.59 5744.08ZM821.25 5728C824.48 5728 827 5730.94 827 5734.17V5743.49C827 5746.71 824.48 5749 821.25 5749H811.93C808.7099999999999 5749 806 5746.71 806 5743.49V5734.17C806 5730.9400000000005 808.71 5728 811.93 5728Z " fill="#ffffff" fill-opacity="1" transform="matrix(1,0,0,1,-806,-5728)"></path></svg>