<svg id="SvgjsSvg1154" xmlns="http://www.w3.org/2000/svg" version="1.1" xmlns:xlink="http://www.w3.org/1999/xlink" xmlns:svgjs="http://svgjs.com/svgjs" width="27" height="15" viewBox="0 0 27 15"><title>vk-4-icon</title><desc>Created with Avocode.</desc><defs id="SvgjsDefs1155"></defs><path id="SvgjsPath1156" d="M632.31 5745.73C630.3599999999999 5745.73 630.02 5744.629999999999 628.41 5743.03C626.9499999999999 5741.58 626.15 5742.69 626.18 5744.75C626.1899999999999 5745.3 625.92 5745.73 625.26 5745.73C623.21 5745.73 620.25 5746.0199999999995 617.27 5742.82C614.04 5739.37 611.31 5733.32 611.0799999999999 5732.7C610.8399999999999 5732.07 611.17 5731.76 611.8499999999999 5731.76C612.6099999999999 5731.76 614.8699999999999 5731.76 615.3799999999999 5731.76C616.3099999999998 5731.76 616.3899999999999 5732.24 616.6499999999999 5732.83C617.7299999999999 5735.2699999999995 620.3299999999998 5740.19 621.0199999999999 5737.45C621.4199999999998 5735.87 621.5799999999998 5732.5199999999995 619.8799999999999 5732.2C618.6699999999998 5731.98 621.6299999999999 5730.44 625.0399999999998 5731.22C626.2799999999999 5731.51 626.2899999999998 5732.06 626.2699999999999 5732.87C626.2099999999999 5735.94 625.8399999999999 5737.71 626.6499999999999 5738.23C627.4299999999998 5738.73 629.4799999999999 5735.459999999999 630.5599999999998 5732.94C630.8499999999998 5732.25 630.9099999999999 5731.759999999999 631.7499999999999 5731.759999999999C635.9399999999999 5731.759999999999 635.6199999999999 5731.759999999999 636.0599999999998 5731.759999999999C638.3199999999998 5731.759999999999 635.7699999999999 5734.999999999999 633.8199999999998 5737.509999999999C632.2399999999998 5739.53 632.3299999999998 5739.57 634.1599999999999 5741.249999999999C636.0799999999998 5743.0199999999995 638.5099999999999 5745.729999999999 635.7799999999999 5745.729999999999C635.0599999999998 5745.729999999999 633.0599999999998 5745.729999999999 632.3099999999998 5745.729999999999Z " fill="#ffffff" fill-opacity="1" transform="matrix(1,0,0,1,-611,-5731)"></path></svg>